<svg id="Layer_1" data-name="Layer 1" xmlns="http://www.w3.org/2000/svg" viewBox="0 0 313.63 464"><defs><style>.cls-1{fill:#ffd7a3;}.cls-2{fill:#fdc88e;}.cls-3{fill:#734a3e;}.cls-4{fill:#623f33;}.cls-5{fill:#ffe1b2;}.cls-6{fill:#e4b07b;}.cls-7{fill:#00bea4;}.cls-8{fill:#00ab9a;}</style></defs><title>boy</title><path class="cls-1" d="M388.63,437,378.5,356a32,32,0,0,0-21.63-26.39l-39-13a16,16,0,0,0-15.38,2.87l-11.5-3.83A16,16,0,0,1,280,300.47v-25.8l34.46-14.36A48,48,0,0,0,344,216v-8a24,24,0,0,0,18.19-39.65C369,143.64,388.07,65.45,368,32l8-32S292,2,248,16L264,0S151.5,0,128,40h0s-40-.33-40,48c0,17.69,9.87,61.86,14.1,80A24,24,0,0,0,120,208v8a48,48,0,0,0,29.54,44.31L184,274.67v25.8a16,16,0,0,1-10.94,15.18l-11.5,3.83a16,16,0,0,0-15.38-2.87l-39,13A32,32,0,0,0,85.5,356L75.37,437a24,24,0,0,0,23.81,27H364.81A24,24,0,0,0,388.63,437Z" transform="translate(-75.18)"/><path class="cls-2" d="M280,274.67H184v25.8a15.86,15.86,0,0,1-8,13.66C243.08,325.87,280,274.67,280,274.67Z" transform="translate(-75.18)"/><path class="cls-3" d="M104,176S88,110.53,88,88c0-48.33,40-48,40-48h0C151.5,0,264,0,264,0L248,16C292,2,376,0,376,0l-8,32c24,40-8,144-8,144Z" transform="translate(-75.18)"/><path class="cls-4" d="M264,0S151.5,0,128,40h0s-40-.33-40,48c0,22.53,16,88,16,88S270.33,101.67,376,0c0,0-84,2-128,16Z" transform="translate(-75.18)"/><path class="cls-5" d="M344,160V144a40,40,0,0,0-40-40H160a40,40,0,0,0-40,40v16a24,24,0,0,0,0,48v8a48,48,0,0,0,29.54,44.31l51.69,21.54A80,80,0,0,0,232,288h0a80,80,0,0,0,30.77-6.15l51.69-21.54A48,48,0,0,0,344,216v-8a24,24,0,0,0,0-48Z" transform="translate(-75.18)"/><path class="cls-4" d="M176,192h0a8,8,0,0,1-8-8v-8a8,8,0,0,1,8-8h0a8,8,0,0,1,8,8v8A8,8,0,0,1,176,192Z" transform="translate(-75.18)"/><path class="cls-4" d="M288,192h0a8,8,0,0,1-8-8v-8a8,8,0,0,1,8-8h0a8,8,0,0,1,8,8v8A8,8,0,0,1,288,192Z" transform="translate(-75.18)"/><path class="cls-6" d="M232,248.22c-14.22,0-27.53-3.5-36.5-9.6a8,8,0,0,1,9-13.23c6.29,4.28,16.57,6.83,27.5,6.83s21.21-2.55,27.5-6.83a8,8,0,1,1,9,13.23C259.53,244.72,246.22,248.22,232,248.22Z" transform="translate(-75.18)"/><path class="cls-7" d="M388.63,437,378.5,356a32,32,0,0,0-21.63-26.39l-39-13a15.74,15.74,0,0,0-18.29,6.21,79.91,79.91,0,0,1-135.06,0,15.74,15.74,0,0,0-18.29-6.21l-39,13A32,32,0,0,0,85.5,356L75.37,437a24,24,0,0,0,23.82,27H364.81A24,24,0,0,0,388.63,437Z" transform="translate(-75.18)"/><path class="cls-8" d="M92.17,340.17A31.93,31.93,0,0,0,85.5,356L75.37,437a24,24,0,0,0,23.82,27H144V411.93a32,32,0,0,0-7.81-21Z" transform="translate(-75.18)"/><path class="cls-8" d="M371.83,340.17A31.93,31.93,0,0,1,378.5,356l10.13,81a24,24,0,0,1-23.82,27H320V411.93a32,32,0,0,1,7.81-21Z" transform="translate(-75.18)"/><path class="cls-1" d="M162,243.72a37.5,37.5,0,0,1-10-25.62V127.44c25.46-1.91,105.74-8.85,152-23.44H160a37.6,37.6,0,0,0-8,.88v-.07A40,40,0,0,0,120,144v16a24,24,0,0,0,0,48v8a48,48,0,0,0,29.54,44.31l51.69,21.54a80.11,80.11,0,0,0,7.73,2.75C186.11,267.88,170.9,253.27,162,243.72Z" transform="translate(-75.18)"/></svg>