<svg id="Capa_1" data-name="Capa 1" xmlns="http://www.w3.org/2000/svg" viewBox="0 0 58 53.07"><defs><style>.cls-1{fill:#ebba16;}.cls-2{fill:#fff;}.cls-3{fill:#fc852e;}</style></defs><title>chat1</title><path class="cls-1" d="M44,18.39V39.53a4.93,4.93,0,0,1-4.93,4.93L22,44.53l-10,11v-11H4.93A4.93,4.93,0,0,1,0,39.61V18.46a4.93,4.93,0,0,1,4.93-4.93l34.14-.07A4.93,4.93,0,0,1,44,18.39Z" transform="translate(0 -2.47)"/><path class="cls-2" d="M22,24.47H9a1,1,0,0,1,0-2H22a1,1,0,0,1,0,2Z" transform="translate(0 -2.47)"/><path class="cls-2" d="M35,30.47H9a1,1,0,0,1,0-2H35a1,1,0,0,1,0,2Z" transform="translate(0 -2.47)"/><path class="cls-2" d="M35,36.47H9a1,1,0,0,1,0-2H35a1,1,0,0,1,0,2Z" transform="translate(0 -2.47)"/><path class="cls-3" d="M53.07,2.54,18.93,2.47A4.93,4.93,0,0,0,14,7.39v6.12l25.07-.05A4.93,4.93,0,0,1,44,18.39V36.83l7,7.7v-11h2.07A4.93,4.93,0,0,0,58,28.61V7.47A4.93,4.93,0,0,0,53.07,2.54Z" transform="translate(0 -2.47)"/></svg>