<svg id="Layer_1" data-name="Layer 1" xmlns="http://www.w3.org/2000/svg" viewBox="0 0 511 511"><defs><style>.cls-1{fill:#6fb0c4;}.cls-2{fill:#f7b95f;}.cls-3{fill:#465c5c;}.cls-4{fill:#afdbe1;}.cls-5{fill:#e1eff4;}.cls-6{fill:#99c8d3;}.cls-7{fill:#749eab;}.cls-8{fill:#fbf1d1;}.cls-9{fill:#fff5f5;}.cls-10{fill:#bb5335;}.cls-11{fill:#a0452c;}.cls-12{fill:#e2902a;}.cls-13{fill:#f5cf51;}.cls-14{fill:#f1bd1f;}.cls-15{fill:#ec3c52;}.cls-16{fill:#d73247;}</style></defs><title>breakfast</title><path class="cls-1" d="M510,255.5a255.05,255.05,0,0,1-14.59,85.3,21.27,21.27,0,0,1-20.07,14.14H33.66a21.29,21.29,0,0,1-20.07-14.15A256.65,256.65,0,0,1,53.36,97.56a100.23,100.23,0,0,0,20.26,2.06,99.82,99.82,0,0,0,98.89-86.28A256.7,256.7,0,0,1,255.07,0C395.92.3,510,114.58,510,255.5Z" transform="translate(1 0)"/><path class="cls-2" d="M495.91,339.34C461.21,439.26,366.24,511,254.5,511S47.79,439.26,13.09,339.34Z" transform="translate(1 0)"/><path class="cls-3" d="M251.6,109.6A99.8,99.8,0,1,1,52.58,99a256.76,256.76,0,0,1,36.08-37.8A100,100,0,0,0,126,34.67a254.37,254.37,0,0,1,49.24-22.11A99.84,99.84,0,0,1,251.6,109.6Z" transform="translate(1 0)"/><path class="cls-4" d="M87.75,61.92a256.28,256.28,0,0,1,40.66-28.67A79.86,79.86,0,1,1,87.75,61.92Z" transform="translate(1 0)"/><path class="cls-5" d="M231.64,109.6a79.84,79.84,0,0,1-69.86,79.2,79.82,79.82,0,0,1,0-158.4A79.84,79.84,0,0,1,231.64,109.6Z" transform="translate(1 0)"/><path class="cls-6" d="M161.78,49.72a10,10,0,1,1-10-10A10,10,0,0,1,161.78,49.72Zm-10,109.79a10,10,0,1,0,10,10A10,10,0,0,0,151.8,159.5ZM91.91,99.62a10,10,0,1,0,10,10A10,10,0,0,0,91.91,99.62Zm119.77,0a10,10,0,1,0,10,10A10,10,0,0,0,211.68,99.62Z" transform="translate(1 0)"/><path class="cls-3" d="M152.85,108.42c.31.38.61.77.89,1.17-4.18,6-12,10-20.94,10s-16.75-4-20.94-10c4.18-6,12-10,20.94-10a27.47,27.47,0,0,1,14.79,4.18c-3.57-6.45-5.79-15.31-5.79-25.11,0-13.21,4-24.74,10-30.92,6,6.18,10,17.7,10,30.92C161.78,91.1,158.23,102,152.85,108.42Z" transform="translate(1 0)"/><path class="cls-7" d="M151.8,94.63a15,15,0,1,1-15,15A15,15,0,0,1,151.8,94.63Z" transform="translate(1 0)"/><path class="cls-6" d="M468.08,96.58v34.56q0,3.43-.31,6.85L447.19,365.43a15.2,15.2,0,0,1-15.14,13.83H321.74a15.2,15.2,0,0,1-15.13-13.83L286,138q-.31-3.42-.31-6.85V96.58a3.8,3.8,0,0,1,3.8-3.8H464.28A3.8,3.8,0,0,1,468.08,96.58Z" transform="translate(1 0)"/><path class="cls-4" d="M468.08,96.58v34.57q0,3.43-.31,6.85L447.19,365.43a15.2,15.2,0,0,1-15.14,13.83H347.83a15.2,15.2,0,0,1-15.13-13.83L314,158.74a15.19,15.19,0,0,1,15.13-16.57H440.73a7.6,7.6,0,0,0,7.58-8.11,7.78,7.78,0,0,0-7.84-7.1H327a15.2,15.2,0,0,1-15.2-15.2V96.58a3.8,3.8,0,0,1,3.8-3.8H464.28A3.8,3.8,0,0,1,468.08,96.58Z" transform="translate(1 0)"/><path class="cls-8" d="M431.67,165h3.7a3.8,3.8,0,0,1,3.78,4.14l-15.57,172a15.2,15.2,0,0,1-15.14,13.83H345.63a15.2,15.2,0,0,1-15.14-13.83L317,191.91a3.8,3.8,0,0,1,3.79-4.14A140.15,140.15,0,0,0,376,176.43l.16-.07A141,141,0,0,1,431.67,165Z" transform="translate(1 0)"/><path class="cls-9" d="M439.16,169.11l-15.57,172a14.61,14.61,0,0,1-.38,2.2c-1.39.14-2.79.22-4.19.22-43.45,0-80.59-64.61-95.5-155.81A140.15,140.15,0,0,0,376,176.43l.15-.07A141,141,0,0,1,431.67,165h3.7A3.8,3.8,0,0,1,439.16,169.11Z" transform="translate(1 0)"/><path class="cls-10" d="M149.44,349.14c-21.71,14.28-52.67,5.54-69.14-19.5C67,309.46,67.21,284.86,79.13,268.58L.33,148.78a8,8,0,0,1,2.3-11.14l10.75-7.07a8,8,0,0,1,11.14,2.3l78.8,119.81c19.66-4.5,42.33,5.08,55.6,25.26C175.39,303,171.15,334.86,149.44,349.14Z" transform="translate(1 0)"/><path class="cls-11" d="M134,355.3c-19.21,3.49-40.86-6.12-53.71-25.66C67,309.46,67.21,284.86,79.13,268.58L.33,148.78a8,8,0,0,1,2.3-11.14l10.75-7.07a8,8,0,0,1,11.14,2.3l.4.61-6.32,4.16a8,8,0,0,0-2.3,11.14l78.8,119.8c-11.92,16.27-12.1,40.88,1.17,61.06C105.63,343.87,119.65,352.83,134,355.3Z" transform="translate(1 0)"/><path class="cls-12" d="M198.61,249.51a20,20,0,1,1-20-20A20,20,0,0,1,198.61,249.51Z" transform="translate(1 0)"/><path class="cls-13" d="M309.5,281.35a40,40,0,0,1-69.57,26.85,40,40,0,0,1-59.21,0,40,40,0,1,1,0-53.7,40,40,0,0,1,59.21,0,40,40,0,0,1,69.57,26.85Z" transform="translate(1 0)"/><path class="cls-12" d="M158.69,289.43a20,20,0,1,1-20-20A20,20,0,0,1,158.69,289.43Zm109.79-29.94a20,20,0,1,0,20,20A20,20,0,0,0,268.47,259.49Z" transform="translate(1 0)"/><path class="cls-13" d="M365,324.37a48,48,0,0,1-83.57,32.25,48,48,0,0,1-71.12,0,48,48,0,0,1-71.13,0,48,48,0,1,1,0-64.51,48,48,0,0,1,71.13,0,48,48,0,0,1,71.12,0A48,48,0,0,1,365,324.37Z" transform="translate(1 0)"/><path class="cls-14" d="M208.59,269.47a10,10,0,1,1-10-10A10,10,0,0,1,208.59,269.47Zm25,25a10,10,0,1,0,10,10A10,10,0,0,0,233.54,294.42Z" transform="translate(1 0)"/><path class="cls-15" d="M142.61,452.7c-45-22.74-80.81-67.46-98.69-123.34H376.73C358.85,385.24,323,430,278,452.7a59.78,59.78,0,0,1-27,6.4h-81.5A59.79,59.79,0,0,1,142.61,452.7Z" transform="translate(1 0)"/><path class="cls-16" d="M385,319.38v10a10,10,0,0,1-10,10H298.42a10,10,0,0,1,10,10.64,10.21,10.21,0,0,1-10.3,9.32H121.49A20,20,0,0,0,105,390.52c18.48,27.06,42.14,48.57,69.08,62.18a59.79,59.79,0,0,0,27,6.4H169.57a59.39,59.39,0,0,1-26.69-6.27c-42.41-21.33-76.69-62.18-95.54-113.5h-1.7a10,10,0,0,1-10-10v-10a10,10,0,0,1,10-10H375A10,10,0,0,1,385,319.38Z" transform="translate(1 0)"/><path class="cls-15" d="M375,339.34H68.87a10,10,0,0,1-10-10v-10a10,10,0,0,1,10-10H375a10,10,0,0,1,10,10v10A10,10,0,0,1,375,339.34Z" transform="translate(1 0)"/></svg>