<svg id="Layer_1" data-name="Layer 1" xmlns="http://www.w3.org/2000/svg" viewBox="0 0 512 512"><defs><style>.cls-1{fill:#c92c2c;}.cls-2{fill:#fbc56d;}.cls-3{fill:#ebae56;}.cls-4{fill:#49cb5c;}.cls-5{fill:#0cc33c;}.cls-6{fill:#73d37a;}.cls-7{fill:#fff5f5;}.cls-8{fill:#495959;}.cls-9{fill:#fc6930;}.cls-10{fill:#ee4424;}</style></defs><title>features-img4</title><path class="cls-1" d="M70.5,425.41a6.34,6.34,0,0,1-7.72-1.48A255,255,0,0,1,0,256C0,114.62,114.61,0,256,0S512.49,115.52,512,256.91a255,255,0,0,1-66.14,170.82C392.1,398.57,326.64,381.44,256,381.44,187.25,381.44,123.41,397.66,70.5,425.41Z"/><path class="cls-2" d="M256,512A255.41,255.41,0,0,1,61.41,422.33,1990.63,1990.63,0,0,1,87.35,102.81h337.3a1990.6,1990.6,0,0,1,25.94,319.52A255.41,255.41,0,0,1,256,512Z"/><path class="cls-3" d="M439.79,70v34.05a10,10,0,0,1-10,10H390.7a10.19,10.19,0,0,1,9.28,9.28A10,10,0,0,1,390,134H184.63a80,80,0,0,0-79.49,70.95A2184.43,2184.43,0,0,0,90.83,451.57a258,258,0,0,1-29.42-29.23A1990.79,1990.79,0,0,1,85.57,114.05H82.21a10,10,0,0,1-10-10V70a10,10,0,0,1,10-10H429.79A10,10,0,0,1,439.79,70Z"/><path class="cls-2" d="M429.79,114.05H100a10,10,0,0,1-10-10V70a10,10,0,0,1,10-10H429.79a10,10,0,0,1,10,10v34.05A10,10,0,0,1,429.79,114.05Z"/><path class="cls-4" d="M455.3,217.06l-70-43.75a10,10,0,0,0-10.6,0l-70,43.75a10,10,0,0,0-4.7,8.48V430a10,10,0,0,0,10,10H450a10,10,0,0,0,10-10V225.54A10,10,0,0,0,455.3,217.06ZM390,230H370a10,10,0,0,1,0-20h20a10,10,0,0,1,0,20Z"/><path class="cls-5" d="M330,440H310a10,10,0,0,1-10-10V225.54a10,10,0,0,1,4.7-8.48l15.7-9.81A10,10,0,0,0,320,210V430A10,10,0,0,0,330,440Z"/><path class="cls-6" d="M445,335a65,65,0,1,1-65-65A65,65,0,0,1,445,335Z"/><path class="cls-7" d="M427.5,305.18,350.18,382.5a12.5,12.5,0,0,1-17.68-17.68l77.32-77.32a12.5,12.5,0,0,1,17.68,17.68ZM345,317.5A17.5,17.5,0,1,0,327.5,300,17.5,17.5,0,0,0,345,317.5Zm70,35A17.5,17.5,0,1,0,432.5,370,17.5,17.5,0,0,0,415,352.5Z"/><path class="cls-8" d="M390,60V230H370V60Z"/><path class="cls-9" d="M301,125a45,45,0,1,1-45-45A45,45,0,0,1,301,125Z"/><path class="cls-10" d="M300.1,134H211.9a45.25,45.25,0,0,1,.46-20h87.28a45.25,45.25,0,0,1,.46,20Z"/></svg>