<svg id="Capa_1" data-name="Capa 1" xmlns="http://www.w3.org/2000/svg" viewBox="0 0 512 401.46"><defs><style>.cls-1{fill:#ffdb4d;}</style></defs><title>pizza-footer</title><path class="cls-1" d="M436.51,58.35C388.24,20.73,324.13,0,256,0S123.76,20.73,75.49,58.35C26.81,96.29,0,146.85,0,200.73S26.81,305.17,75.49,343.11c48.27,37.62,112.38,58.35,180.51,58.35s132.24-20.73,180.51-58.35C485.19,305.17,512,254.61,512,200.73S485.19,96.29,436.51,58.35Zm59.43,103.72a75.29,75.29,0,0,0-21.82-8c-7.16-32.65-26.87-62.8-57.35-87.18l8-3.56c35.47,26.06,60.86,60.28,71.17,98.73Zm-29.73,19.82c0,43.32-23.77,82.59-62.09,111l-20.38-20.5c13.14-7.47,21.58-19,21.58-31.84,0-22.45-25.63-40.72-57.14-40.72a74.46,74.46,0,0,0-30.36,6.24l-61.45-61.81,98.86,9.29a26.39,26.39,0,0,0-.64,5.73c0,19.48,21.25,34.74,48.38,34.74,25.58,0,45.93-13.57,48.17-31.45l13.66,1.28A117.78,117.78,0,0,1,466.21,181.89ZM54.85,227.39l179-79.4-29.8,93.34c-1.58-.09-3.18-.15-4.8-.15-31.51,0-57.14,18.26-57.14,40.72,0,17.36,15.34,32.21,36.85,38.06l-2.2,6.9C118.57,309.16,73.33,272.58,54.85,227.39Zm395.32-75.93c-4.8-15.61-23.81-27-47.19-27-18.89,0-34.93,7.41-42.92,18.48L265.23,134,405.41,71.85c28.8,21.69,49.17,49.59,57.12,80.73Zm-83.87,3.1,73.94,7c-1.86,11.89-18.16,21.54-37.26,21.54-20.3,0-37.44-10.9-37.44-23.8a15,15,0,0,1,.76-4.74Zm7.79-10.26c6.93-5.37,17.4-8.86,28.89-8.86,15.33,0,28.86,6.22,34.56,14.83Zm32.67-85C373.42,35.73,332,20.86,287.39,16.09l1.11-3.48C336.07,17.51,379.37,33,414.29,56ZM395,64.55,251.65,128.12,284,26.73C326.21,31,364.5,44.52,395,64.55Zm-148,28c-3.47,0-5.77-1.82-5.77-3s2.3-3,5.77-3c3,0,5.09,1.35,5.62,2.49L252,90.89A7.34,7.34,0,0,1,247,92.56Zm9.19-14.76A19.28,19.28,0,0,0,247,75.56c-9.37,0-16.7,6.14-16.7,14s7.34,14,16.7,14a6.63,6.63,0,0,0,1-.05L240.18,128,209.8,97.37a27.06,27.06,0,0,0,3-12.35c0-19.69-21.49-35.11-48.92-35.11h-1.25l-5.94-6c29.59-11.86,63.4-18.6,99.3-18.6q8.48,0,16.79.5ZM195.33,98.35c-6.9,6.48-18.55,10.83-31.46,10.83-20.59,0-38-11.07-38-24.17,0-11.9,14.36-22.13,32.43-23.9Zm-20.86-36.5c15.62,3,27.38,12.39,27.38,23.16a15.07,15.07,0,0,1-.51,3.86ZM148.8,51.54C129,56,115,69.12,115,85c0,19.69,21.49,35.11,48.92,35.11,16.25,0,30.42-5.42,39.27-13.92l24.15,24.3L65.77,115.32C83.26,87.73,111.25,64.53,145.9,48.6ZM222.49,141,51.11,217a118.59,118.59,0,0,1-5.36-35.18,121.39,121.39,0,0,1,14-56.14ZM182.3,309.51c-16.94-4.46-29.25-15.3-29.25-27.61,0-16.14,21.16-29.78,46.2-29.78h1.35Zm29.42-56.23c19.21,3.61,33.73,15.25,33.73,28.62,0,16.14-21.16,29.78-46.2,29.78-2.05,0-4.08-.1-6.07-.28ZM189.78,322a79.89,79.89,0,0,0,9.47.57c31.51,0,57.14-18.26,57.14-40.72,0-18.54-17.49-34.21-41.32-39.12l30.09-94.32L308,211.62c-10.44,7.38-16.91,17.6-16.91,28.88,0,22.45,25.63,40.72,57.14,40.72a76.26,76.26,0,0,0,24.91-4.08l21.92,22c-37.08,24.39-85.76,39.22-139,39.22a275,275,0,0,1-68.69-8.59Zm174.55-53.71a66.93,66.93,0,0,1-16.14,2c-25,0-46.2-13.64-46.2-29.78,0-8.1,5.33-15.57,13.81-21ZM326.2,214.45a65.46,65.46,0,0,1,22-3.72c25,0,46.2,13.64,46.2,29.78,0,9.56-7.43,18.25-18.69,23.74ZM277.32,11.67l-1.1,3.45q-10-.68-20.22-.7c-38.31,0-75.14,7.33-107.69,21.09l-3.76-3.78C178,18.44,215.89,10.94,256,10.94,263.18,10.94,270.29,11.2,277.32,11.67ZM133.69,36.32l4,4A223.74,223.74,0,0,0,100.24,63C80.3,78,64.61,95.29,53.6,114.18L38.93,112.8C60.52,80.89,93.51,54.32,133.69,36.32ZM32.36,123.16,48,124.64a132,132,0,0,0-13.17,57.25A130.35,130.35,0,0,0,41,221.47a102.38,102.38,0,0,0-12,6.47,57.6,57.6,0,0,0-13.12,11,148.81,148.81,0,0,1-5-38.16C10.94,173.11,18.6,146.86,32.36,123.16ZM20.41,253C22.32,244.13,36,236,44.76,231.79c10.57,25.82,29.38,49.44,55.44,69,21.17,15.9,45.86,28.16,72.73,36.39a123.45,123.45,0,0,0-8.08,39.7C95.24,355.22,41.33,309.48,20.41,253ZM175.78,380c-.16-17.12,5-32.68,7.74-39.87A286.94,286.94,0,0,0,256,349.35c54.78,0,106.55-15,147.08-42.35a110.8,110.8,0,0,1,9,9.69c6.57,8,10.64,15.58,11.92,22.07-43.9,32.07-103,51.76-168,51.76a308.91,308.91,0,0,1-80.22-10.46Zm257.58-48.49c-4.39-13-14.89-24.76-21.22-31,41.93-31.63,65-73.75,65-118.66a130,130,0,0,0-1-16.15c6.82,1.84,16.86,5.61,23.25,12.87a148.44,148.44,0,0,1,1.67,22.12c0,50.67-25.77,96.77-67.7,130.84Z"/><path class="cls-1" d="M113.61,176.36c10.93,0,19.49-7,19.49-15.88s-8.56-15.88-19.49-15.88-19.49,7-19.49,15.88S102.68,176.36,113.61,176.36Zm0-20.83c4.89,0,8.55,2.61,8.55,4.94s-3.66,4.95-8.55,4.95-8.55-2.61-8.55-4.95S108.72,155.53,113.61,155.53Z"/><path class="cls-1" d="M123.19,245.35c-10.93,0-19.49,7-19.49,15.88s8.56,15.88,19.49,15.88,19.49-7,19.49-15.88S134.11,245.35,123.19,245.35Zm0,20.83c-4.89,0-8.55-2.61-8.55-4.94s3.66-5,8.55-5,8.55,2.61,8.55,5-3.66,4.94-8.55,4.94Z"/><path class="cls-1" d="M301.46,303.73c10.93,0,19.49-7,19.49-15.88S312.39,272,301.46,272,282,279,282,287.85,290.53,303.73,301.46,303.73Zm0-20.83c4.89,0,8.55,2.61,8.55,5s-3.66,4.94-8.55,4.94-8.55-2.61-8.55-4.94S296.57,282.9,301.46,282.9Z"/><path class="cls-1" d="M330.89,162c-10.93,0-19.49,6.85-19.49,15.6s8.56,15.6,19.49,15.6,19.49-6.85,19.49-15.6S341.82,162,330.89,162Zm0,20.25c-5.22,0-8.55-2.76-8.55-4.66s3.33-4.66,8.55-4.66,8.55,2.76,8.55,4.66S336.11,182.25,330.89,182.25Z"/><path class="cls-1" d="M184.48,216.41c9.37,0,16.7-6.14,16.7-14s-7.34-14-16.7-14-16.7,6.14-16.7,14S175.12,216.41,184.48,216.41Zm0-17c3.47,0,5.77,1.82,5.77,3s-2.3,3-5.77,3-5.76-1.82-5.76-3S181,199.41,184.48,199.41Z"/><path class="cls-1" d="M410.44,95.59c-9.37,0-16.7,6.14-16.7,14s7.34,14,16.7,14,16.7-6.14,16.7-14S419.81,95.59,410.44,95.59Zm0,17c-3.47,0-5.77-1.82-5.77-3s2.3-3,5.77-3,5.77,1.82,5.77,3S413.91,112.59,410.44,112.59Z"/><path class="cls-1" d="M305.51,82.68c9.37,0,16.7-6.14,16.7-14s-7.34-14-16.7-14-16.7,6.14-16.7,14S296.14,82.68,305.51,82.68Zm0-17c3.47,0,5.77,1.82,5.77,3s-2.3,3-5.77,3-5.77-1.82-5.77-3S302,65.68,305.51,65.68Z"/><path class="cls-1" d="M341.87,265.3a5.47,5.47,0,0,0,1.23-10.87c-11.79-1.34-21-7.46-21-13.93a7.24,7.24,0,0,1,.37-2.26,5.5,5.5,0,0,0-10.47-3.4,18.18,18.18,0,0,0-.91,5.67C311.13,252.85,324.06,263.28,341.87,265.3Z"/><path class="cls-1" d="M348.18,215.35a5.47,5.47,0,0,0,0,10.94c12.35,0,26.11,5.84,26.11,14.21a8,8,0,0,1-1.29,4.23,5.47,5.47,0,1,0,9.18,5.95l.13-.21a18.7,18.7,0,0,0,2.91-9.93C385.23,226.4,369,215.35,348.18,215.35Z"/><path class="cls-1" d="M403,176.73c8.14,0,15.8-2.06,21-5.66a5.47,5.47,0,0,0-6.22-9c-3.38,2.33-8.91,3.72-14.8,3.72-8,0-13.92-2.47-16.23-4.92a5.47,5.47,0,0,0-8,7.51C383.74,173.64,392.78,176.73,403,176.73Z"/><path class="cls-1" d="M203.72,307.12h.58c17.22-1.83,29.7-12.39,29.7-25.22,0-7.35-4.25-14.31-11.65-19.1a5.47,5.47,0,1,0-6.24,9l.3.19c2.48,1.61,6.65,5,6.65,9.91,0,6.86-8.75,13.14-19.92,14.31a5.47,5.47,0,0,0,.56,10.91Z"/><path class="cls-1" d="M181.54,259.93c-10.68,4.57-17.05,12.79-17.05,22,0,5.7,2.45,11.07,7.09,15.52a5.47,5.47,0,0,0,7.57-7.89c-1.7-1.63-3.72-4.27-3.72-7.62,0-4.59,4-9.15,10.42-11.91a5.47,5.47,0,0,0-4.31-10Z"/><path class="cls-1" d="M163.89,105.63a49.42,49.42,0,0,0,13.88-1.9,5.47,5.47,0,0,0-3.07-10.5,39.06,39.06,0,0,1-10.8,1.5c-13.05,0-21.38-5.73-21.38-9.67,0-2.4,2.92-5.19,7.44-7.09a5.47,5.47,0,0,0-4.25-10.08c-9,3.79-14.13,10-14.13,17.17C131.57,96.58,145.77,105.63,163.89,105.63Z"/><path class="cls-1" d="M273.43,254.86a5.47,5.47,0,0,0,.18-10.94c-5-.17-18.74-2.41-18.74-8.15,0-3.16,7.58-8.48,12.6-12,9.12-6.4,20.47-14.36,14.79-25-6.72-12.6-24.79-11.13-34.42-8.28A5.47,5.47,0,0,0,250.95,201c.17,0,17.54-4.79,21.66,2.94,1.13,2.12-7,7.84-11.42,10.92-8.49,6-17.26,12.11-17.26,21,0,14.29,18.43,18.72,29.32,19.08Z"/><path class="cls-1" d="M370.66,101.68a5.61,5.61,0,0,0-6.88,2.85c-3.52,7-10.74,17.9-15.32,19.57-1.42.51-5-2.93-7.28-5.22-4.16-4.07-9.35-9.13-16-7.82-10.42,2.08-16.81,15.18-17.5,16.67a5.47,5.47,0,0,0,9.91,4.64,30.39,30.39,0,0,1,6.16-8.53,5.08,5.08,0,0,1,6.72,0c1.09,1,2.21,2.05,3,2.84,4.55,4.45,10.78,10.55,18.67,7.68,10.34-3.76,19.68-21.59,21.45-25.12a5.47,5.47,0,0,0-2.44-7.34Z"/><path class="cls-1" d="M231,32.29a177.18,177.18,0,0,0-18.26,3.53,5.47,5.47,0,0,0,2.71,10.6c10.25-2.62,20.95-4.13,27.11-4a.6.6,0,0,1,.3,1.12C239,46,233.3,48.78,230,50.41c-3.88,1.91-7.54,3.71-10.27,5.39-2.14,1.31-7.84,4.8-6,10.32,2.35,7.05,13.39,9.36,19.77,10.11a5.37,5.37,0,0,0,.65,0,5.47,5.47,0,0,0,5.45-5.06,5.64,5.64,0,0,0-5-5.87,42.44,42.44,0,0,1-5-.95.78.78,0,0,1-.16-1.46c1.83-.95,3.79-1.91,5.41-2.71,13.22-6.51,25.71-12.66,22-21.9C253.7,30.35,241.4,30.91,231,32.29Z"/><path class="cls-1" d="M430.09,228.58c8.34-5.43,16.22-10.56,16.22-17.64a8.61,8.61,0,0,0-2.82-6.34c-6.57-6.24-26.09-5.95-34.17-5.53a5.47,5.47,0,0,0,.56,10.92c9.87-.5,20.48.33,24.63,1.8-2.16,2.26-7.36,5.64-10.39,7.62-8.12,5.32-15.18,9.89-15.18,16.32,0,10.52,16.49,15.09,23.58,16.57a5.47,5.47,0,1,0,2.31-10.69l-.08,0c-6-1.24-12.61-3.94-14.53-5.8C421.91,233.91,426.94,230.63,430.09,228.58Z"/><path class="cls-1" d="M110.26,223.2c9.11-7.41,21.75-14.23,26.39-12.83.05,2-2,6.81-3.08,9.51-2.85,6.88-6.09,14.68-1,19.77a9.3,9.3,0,0,0,6.87,2.61c5.46,0,12.08-3.2,17.8-6.41a165.46,165.46,0,0,0,14.46-9.26,5.47,5.47,0,0,0-6.43-8.85c-9.22,6.7-19.56,12.37-24.22,13.43a63.08,63.08,0,0,1,2.62-7.1c2.63-6.34,5.35-12.89,3-18.34a10.13,10.13,0,0,0-5.87-5.49c-12.72-4.89-33.44,11.2-37.46,14.48a5.47,5.47,0,0,0,6.91,8.48Z"/><path class="cls-1" d="M54.1,190.73a5.47,5.47,0,0,0,5.43,4.87,5.77,5.77,0,0,0,.61,0,5.47,5.47,0,0,0,4.83-6c-2.42-21.82-.2-39.41,3.59-44.23,1.65,3.36,3.29,11.39,4.33,16.48,2.84,13.9,5.3,25.9,14.26,26.59a5.47,5.47,0,0,0,1.61-10.79c-2-2.34-4-12.46-5.16-18C81,147,79,137.07,72.48,134.2a9.13,9.13,0,0,0-8.54.76c-6.79,4.07-10.31,14.7-10.76,32.49A191.54,191.54,0,0,0,54.1,190.73Z"/><path class="cls-1" d="M143.15,165.12h.51a5.47,5.47,0,0,0,5.44-5c.43-4.67,1.62-9.81,2.73-12.15,1.4.77,3.44,2.2,4.91,3.24,5.92,4.17,13.28,9.35,20.38,6.2a5.47,5.47,0,0,0-4.44-10h0c-1.42.64-7.61-3.71-9.64-5.15-4.37-3.08-8.15-5.74-12.17-5.74s-10.87,2.94-12.66,22.6a5.47,5.47,0,0,0,4.89,6Z"/><path class="cls-1" d="M87.4,108a5.63,5.63,0,0,0,6.81-3c2.17-4.51,5.58-9.29,7.58-10.75,1.28,2,2.84,6.56,3.74,9.2,2.35,6.91,4.38,12.88,10.09,12.88a5.3,5.3,0,0,0,5-3.15,5.58,5.58,0,0,0-.7-5.7,21,21,0,0,1-3.53-6.08l-.5-1.46C113.2,92,110.43,83.85,103.48,83c-9.31-1.19-16.56,11.85-19.24,17.5A5.47,5.47,0,0,0,87.4,108Z"/><path class="cls-1" d="M319,52.19c14.5.31,29.29,2.27,34.18,4.4-2.63,3.45-11.6,10-20.67,15a5.47,5.47,0,0,0,5.24,9.6,148.56,148.56,0,0,0,13.45-8.46c7.4-5.29,15.59-12.31,13.12-19.7-1.85-5.55-9.24-8.57-25.5-10.41-9.85-1.12-19.23-1.33-19.63-1.34A5.47,5.47,0,0,0,319,52.22Z"/><path class="cls-1" d="M262.72,110.39a5.47,5.47,0,0,0,7.08,3.11c7-2.73,23.57-10.08,25.51-19.3a9.51,9.51,0,0,0-2.8-8.89c-4.75-4.75-9.44-6.32-13.25-6.57a5.45,5.45,0,0,0-5.06,8,5.61,5.61,0,0,0,4.43,2.87,8.69,8.69,0,0,1,4,1.6A1.76,1.76,0,0,1,282.8,94c-3.22,2.76-10.1,6.6-17,9.28a5.47,5.47,0,0,0-3.1,7.09Z"/></svg>