<svg id="Capa_1" data-name="Capa 1" xmlns="http://www.w3.org/2000/svg" viewBox="0 0 60 58"><title>chat</title><path d="M54.07,1H15.93A5.94,5.94,0,0,0,10,6.93V15H5.93A5.94,5.94,0,0,0,0,20.93V42.07A5.94,5.94,0,0,0,5.93,48H12V58a1,1,0,0,0,1.74.67L23.44,48H44.07A5.94,5.94,0,0,0,50,42.07V34h4.07A5.94,5.94,0,0,0,60,28.07V6.93A5.94,5.94,0,0,0,54.07,1ZM48,42.07A3.93,3.93,0,0,1,44.07,46H23a1,1,0,0,0-.74.33L14,55.41V47a1,1,0,0,0-1-1H5.93A3.93,3.93,0,0,1,2,42.07V20.93A3.93,3.93,0,0,1,5.93,17H44.07A3.93,3.93,0,0,1,48,20.93V42.07Zm10-14A3.93,3.93,0,0,1,54.07,32H50V20.93h0a5.94,5.94,0,0,0-4.17-5.66,5.69,5.69,0,0,0-.57-.15A5.88,5.88,0,0,0,44.07,15H12V6.93A3.93,3.93,0,0,1,15.93,3H54.07A3.93,3.93,0,0,1,58,6.93Z" transform="translate(0 -1)"/><path d="M12,27H26a1,1,0,0,0,0-2H12a1,1,0,0,0,0,2Z" transform="translate(0 -1)"/><path d="M39,31H12a1,1,0,0,0,0,2H39a1,1,0,0,0,0-2Z" transform="translate(0 -1)"/><path d="M39,37H12a1,1,0,0,0,0,2H39a1,1,0,0,0,0-2Z" transform="translate(0 -1)"/></svg>