<svg id="Capa_1" data-name="Capa 1" xmlns="http://www.w3.org/2000/svg" viewBox="0 0 320 480.02"><title>chef</title><path d="M323.42,336.82A7.88,7.88,0,0,0,320,336a7.73,7.73,0,0,0-1.6.32c-2.12-.15-4.23-.32-6.4-.32h-8.15A79.52,79.52,0,0,0,320,288a24,24,0,0,0,0-48v-31.2l7.7-38.5L341.43,136H344a48,48,0,1,0-25.34-88.66A60,60,0,0,0,211.85,24.23,48,48,0,1,0,168,103.36v39.86l-7.84,39.2a6,6,0,0,0,0,.85c0,.25-.16.47-.16.72v56a24,24,0,0,0,0,48,79.52,79.52,0,0,0,16.15,48H168a88.1,88.1,0,0,0-88,88v48a8,8,0,0,0,8,8H392a8,8,0,0,0,8-8V424A88.07,88.07,0,0,0,323.42,336.82ZM160,272a8,8,0,0,1,0-16Zm144-41.18a48.53,48.53,0,0,1-25-20.21l25,4.17Zm1.67-32L177.48,177.5l4.86-24.3,128.2,21.36Zm-53,7.38c-12.55,18.48-53.4,24.44-76.69,25.55v-38.3ZM328,264a8,8,0,0,1-8,8V256A8,8,0,0,1,328,264ZM144,56a31.94,31.94,0,0,1,61-13.3,8.22,8.22,0,0,0,7.36,4.66,8,8,0,0,0,7.25-4.8A44,44,0,0,1,304,60c0,1.29-.1,2.55-.19,3.82a8,8,0,0,0,14.4,5.38A31.67,31.67,0,0,1,344,56a32,32,0,0,1,0,64h-8a8,8,0,0,0-7.43,5l-13.6,34L184,137.25V96a8,8,0,0,0-8-8A32,32,0,0,1,144,56Zm32,232v-40.2c20-.85,68.87-5.46,88.38-30.22A63,63,0,0,0,304,247.3V288a64,64,0,0,1-128,0ZM160,408v56H136V432a8,8,0,0,0-16,0v32H96V424a72.08,72.08,0,0,1,72-72h24.16a79.39,79.39,0,0,0,95.68,0H312v25.17L166.76,400.13A8,8,0,0,0,160,408Zm224,56H352V440a8,8,0,0,0-16,0v24H176V414.86l145.25-22.94A8,8,0,0,0,328,384V353.88A72.08,72.08,0,0,1,384,424v40Z" transform="translate(-80.01 0)"/><path d="M208,256a8,8,0,0,0-8,8v8a8,8,0,0,0,16,0v-8A8,8,0,0,0,208,256Z" transform="translate(-80.01 0)"/><path d="M272,256a8,8,0,0,0-8,8v8a8,8,0,0,0,16,0v-8A8,8,0,0,0,272,256Z" transform="translate(-80.01 0)"/><path d="M278.4,307.22a8,8,0,0,0-11.19-1.6,45.6,45.6,0,0,1-54.4,0,8,8,0,0,0-9.6,12.8,61.66,61.66,0,0,0,73.6,0A8,8,0,0,0,278.4,307.22Z" transform="translate(-80.01 0)"/><path d="M204,424a12,12,0,1,0,12,12A12,12,0,0,0,204,424Zm0,16a4,4,0,1,1,4-4A4,4,0,0,1,204,440Z" transform="translate(-80.01 0)"/></svg>