<svg id="Capa_1" data-name="Capa 1" xmlns="http://www.w3.org/2000/svg" viewBox="0 0 512.02 513.2"><title>contact</title><path d="M405.94,486.75a5.12,5.12,0,0,1-5.12,5.12H70.15a5.12,5.12,0,0,1-5.53-4.67c0-.15,0-.3,0-.45V34.16a36.49,36.49,0,0,0-1.92-11.63H391.75a14.29,14.29,0,0,1,14.19,14.4s0,.07,0,.11V225.2h21.33V37A35.73,35.73,0,0,0,391.75,1.2h-351A29.23,29.23,0,0,0,16.18,4.93,37,37,0,0,0,.61,35.55v77.76a25.71,25.71,0,0,0,24.83,26.56H43.27V486.75A26.45,26.45,0,0,0,69.72,513.2H400.39a26.45,26.45,0,0,0,26.88-26c0-.14,0-.29,0-.43V395.87H405.94ZM43.27,118.53H25.46c-1.71,0-3.52-2.13-3.52-5.12V35.55a16,16,0,0,1,6.08-13,7.9,7.9,0,0,1,4.59-1.39v1.39h4.48a13.34,13.34,0,0,1,6.19,11.63v84.37Z" transform="translate(-0.59 0)"/><path d="M509.51,250.48l-33.17-33.17a10.67,10.67,0,0,0-15,0L295.64,383a10.67,10.67,0,0,0-2.13,3.2l-27.63,60.69A10.67,10.67,0,0,0,280,460.93l60.69-27.63a10.67,10.67,0,0,0,3.2-2.13L509.51,265.52A10.67,10.67,0,0,0,509.51,250.48ZM297,429.79l9.49-21.33,11.41,11.41Zm39.25-21.33-18-17.92,111.89-112,18.45,18.13Zm127-126.93-18-18,23.57-23.57,18,18Z" transform="translate(-0.59 0)"/><rect x="138.68" y="75.87" width="192" height="21.33"/><rect x="138.68" y="150.53" width="192" height="21.33"/><rect x="138.68" y="225.2" width="192" height="21.33"/><rect x="138.68" y="299.87" width="85.33" height="21.33"/><rect x="256.01" y="299.87" width="21.33" height="21.33"/><rect x="309.35" y="299.87" width="21.33" height="21.33"/></svg>