<svg id="Capa_1" data-name="Capa 1" xmlns="http://www.w3.org/2000/svg" viewBox="0 0 512 374.26"><title>delivery-truck</title><path d="M414.5,188.52H382.26L392,77c0-.2,0-.4,0-.6,0,0,0,0,0-.05h0a7.5,7.5,0,0,0-4.52-6.87l-.07,0-.51-.19-.19-.07-.43-.11L386,69l-.39-.06-.36-.05H231a7.5,7.5,0,0,0,0,15H376.32L361.4,255.24v0l-3.77,43.24H97l4.36-45H151a7.5,7.5,0,0,0,0-15H102.83l9.2-95h79a7.5,7.5,0,0,0,0-15H113.49l4.33-44.66H201a7.5,7.5,0,0,0,0-15H111a7.5,7.5,0,0,0-7.32,5.92l0,.07c0,.19-.06.38-.09.57s0,.12,0,.18v0l-5.12,52.89H7.5a7.5,7.5,0,0,0,0,15H97l-9.2,95H61a7.5,7.5,0,1,0,0,15H86.31l-5,51.72v0l-7.75,80v.06c0,.1,0,.21,0,.31s0,.27,0,.41v0c0,.19,0,.38,0,.57s0,.12,0,.18.05.39.09.58,0,.11,0,.17.07.28.11.42,0,.2.08.3l0,.08a7.5,7.5,0,0,0,1.78,2.94l0,0,.25.23a7.44,7.44,0,0,0,1.74,1.19l.4.19.13,0,.57.21h.05c.22.07.45.12.68.17h.09c.22,0,.44.08.66.1h0q.37,0,.73,0h33.4a57.09,57.09,0,0,0,113.19,0H347.9a57.09,57.09,0,0,0,113.19,0h33.41c.25,0,.5,0,.74,0l.13,0,.58-.09.24-.06.44-.11.29-.1.37-.14.3-.13.33-.16.3-.16.31-.19.28-.18.3-.22.24-.2.3-.27.2-.2.3-.33.16-.18c.11-.14.21-.28.31-.42l.11-.14c.12-.18.24-.37.34-.57l0,0c.11-.21.22-.42.31-.64l.07-.19c.06-.15.12-.31.17-.47s.06-.21.09-.32.07-.25.1-.38,0-.23.06-.34,0-.2.05-.3c.32-2.55,6.19-49.67,8.81-80.14v-.09c.76-8.78,1.24-16.18,1.24-20.71A97.61,97.61,0,0,0,414.5,188.52Zm-33.54,15h30.68l-3.92,45H377ZM171,428.13a42.1,42.1,0,1,1,42.1-42.1A42.15,42.15,0,0,1,171,428.13Zm233.49,0A42.1,42.1,0,1,1,446.6,386,42.15,42.15,0,0,1,404.5,428.13Zm83.37-49.61H461.1a57.09,57.09,0,0,0-113.19,0H227.6a57.09,57.09,0,0,0-113.19,0H89.27l6.3-65H364.51a7.38,7.38,0,0,0,.75,0l.14,0,.58-.09.25-.06.45-.11.29-.1.37-.14.31-.14.33-.16.3-.17.3-.18.28-.2.29-.22.26-.21.28-.25.23-.23.26-.29.2-.24.24-.32.17-.25.21-.35.15-.27c.06-.12.12-.24.17-.36l.13-.29c0-.12.09-.24.13-.36s.08-.21.11-.32.06-.23.09-.35.06-.24.08-.36,0-.24.05-.36,0-.25.05-.37,0,0,0-.05l3.76-43.15H414.5c23,0,33.34,11.91,44.31,24.51,9.05,10.4,19.16,22,36.34,24.84C493,335.94,489.44,365.55,487.86,378.52Zm8.57-80.68c-11.14-2.27-18-10.11-26.31-19.65-10.39-11.93-23.07-26.5-47.39-29.21l3.88-44.55A82.62,82.62,0,0,1,497,286C497,288.84,496.79,292.92,496.43,297.84Z" transform="translate(0 -68.87)"/><path d="M171,358.52a27.5,27.5,0,1,0,27.5,27.5A27.53,27.53,0,0,0,171,358.52Zm0,40a12.5,12.5,0,1,1,12.5-12.5A12.51,12.51,0,0,1,171,398.52Z" transform="translate(0 -68.87)"/><path d="M404.5,358.52A27.5,27.5,0,1,0,432,386,27.53,27.53,0,0,0,404.5,358.52Zm0,40A12.5,12.5,0,1,1,417,386,12.51,12.51,0,0,1,404.5,398.52Z" transform="translate(0 -68.87)"/><path d="M71,188.53H34.33a7.5,7.5,0,1,0,0,15H71a7.5,7.5,0,1,0,0-15Z" transform="translate(0 -68.87)"/></svg>