<svg id="Capa_1" data-name="Capa 1" xmlns="http://www.w3.org/2000/svg" viewBox="0 0 463.75 510.13"><title>ruble-currency-sign</title><path d="M34.79,429h81.16v69.57a11.18,11.18,0,0,0,11.6,11.59H188a11.44,11.44,0,0,0,8.15-3.27,10.93,10.93,0,0,0,3.44-8.32V429h183a11.16,11.16,0,0,0,11.6-11.59V371a11.18,11.18,0,0,0-11.6-11.59h-183V316.65H322.81q72.46,0,118.29-44.2t45.83-114.12q0-69.91-45.83-114.12T322.81,0H127.54a11.16,11.16,0,0,0-11.6,11.59v227.9H34.79a11,11,0,0,0-8.33,3.44,11.46,11.46,0,0,0-3.26,8.15v54a11.16,11.16,0,0,0,11.6,11.59h81.16V359.4H34.79A11.18,11.18,0,0,0,23.19,371v46.38A11.16,11.16,0,0,0,34.79,429ZM199.63,77.18H315.57q38.4,0,62,22.46t23.55,58.69q0,36.23-23.55,58.69t-62,22.47H199.63Z" transform="translate(-23.19)"/></svg>