<svg id="Layer_1" data-name="Layer 1" xmlns="http://www.w3.org/2000/svg" viewBox="0 0 511 510.52"><title>sale</title><path d="M510.65,19.72c-3.54-19.74-29.35-25.64-41-9A188.13,188.13,0,0,1,425.61,55a11.72,11.72,0,0,0-17-9.31,310.18,310.18,0,0,1-60,23.13,7.56,7.56,0,1,0,4,14.59,327.74,327.74,0,0,0,58-21.76V484.89a11.46,11.46,0,0,1-17.86,9.5L270.35,412a26.57,26.57,0,0,0-29.71,0l-72.69,49a7.56,7.56,0,0,0,8.45,12.55c75.38-50,72.87-50.94,79.09-50.94,6.53,0,1.45-.56,128.73,84.39,17.71,11.91,41.44-.88,41.44-22V108.58c33.23-18.73,61.17-43.08,81.26-71.9A22.62,22.62,0,0,0,510.65,19.72ZM494.51,28c-17.3,24.81-40.86,46.12-68.85,63.09V73.27c22.73-15,42-33.13,56.44-53.89A7.56,7.56,0,0,1,494.51,28Z" transform="translate(0 -1)"/><path d="M142.86,477.85c-24.36,15.77-25.15,18.53-30.89,18.53a11.53,11.53,0,0,1-11.52-11.49V61.62c68.1,33.44,149.05,41.8,222,28.59a7.57,7.57,0,0,0-2.7-14.89c-72,13-151.62,4.11-217.33-29.66a11.72,11.72,0,0,0-17,9.31A188.11,188.11,0,0,1,41.3,10.72a22.7,22.7,0,0,0-37.24,26c20.09,28.81,48,53.17,81.26,71.9V484.89c0,21.14,23.7,34,41.44,22l24.56-16.55a7.57,7.57,0,0,0-8.46-12.55ZM85.32,91.12c-28-17-51.54-38.28-68.84-63.09a7.56,7.56,0,1,1,12.41-8.65C43.37,40.14,62.59,58.28,85.32,73.27Z" transform="translate(0 -1)"/><path d="M287.45,288.44v41.72c0,53.55,63.5,53.09,84.62,33.7,8.57-7.88,13.11-19.52,13.11-33.7V288.44c0-14.17-4.54-25.83-13.11-33.7C351,235.41,287.45,234.8,287.45,288.44Zm15.13,0c0-20.14,11.34-30.35,33.73-30.35s33.73,10.21,33.73,30.35v41.72c0,20.14-11.36,30.35-33.73,30.35s-33.73-10.21-33.73-30.35Z" transform="translate(0 -1)"/><path d="M336.32,351.12c14,0,22.09-7.65,22.09-21V288.44c0-13.32-8-21-22.09-21s-21.8,7.44-21.8,21v41.72C314.51,343.68,322.26,351.12,336.32,351.12Zm-6.68-62.68c0-4.44.3-5.84,6.68-5.84,6.67,0,7,1.79,7,5.84v41.72c0,4-.28,5.83-7,5.83-6.37,0-6.68-1.4-6.68-5.83Z" transform="translate(0 -1)"/><path d="M174.67,171.62c-14.06,0-21.8,7.44-21.8,21V234.3c0,13.52,7.75,21,21.8,21s22.09-7.65,22.09-21V192.58C196.76,179.27,188.71,171.62,174.67,171.62Zm7,62.68c0,4-.28,5.84-7,5.84-6.37,0-6.68-1.4-6.68-5.84V192.58c0-4.43.3-5.83,6.68-5.83,6.67,0,7,1.78,7,5.83Z" transform="translate(0 -1)"/><path d="M223.53,192.58c0-14.17-4.54-25.82-13.11-33.7-17.2-15.79-54.19-15.9-71.5,0-8.57,7.88-13.11,19.52-13.11,33.7V234.3c0,27.59,16.93,45.49,48.87,45.49s48.86-17.87,48.86-45.49ZM208.4,234.3c0,20.14-11.34,30.35-33.73,30.35s-33.73-10.21-33.73-30.35V192.58c0-20.14,11.34-30.35,33.73-30.35s33.73,10.21,33.73,30.35Z" transform="translate(0 -1)"/><path d="M288.62,147.27C175,374.86,183,356.8,183,363.43a21.81,21.81,0,0,0,21.79,21.24c8.25,0,15.81-4.45,19.24-11.32l43.17-86.1a7.56,7.56,0,0,0-13.52-6.78l-43.17,86.1c-.89,1.77-3.19,3-5.72,3-4.45,0-8.13-4.39-5.94-8.51L302.2,154c3-5.91,14.6-1.48,11.64,6.42l-46.65,93a7.57,7.57,0,1,0,13.52,6.79c18.78-37.47,46.81-93.36,47-93.79a21.06,21.06,0,0,0-2.91-21.7C315,132.7,295.36,133,288.62,147.27Z" transform="translate(0 -1)"/></svg>