<svg id="Capa_1" data-name="Capa 1" xmlns="http://www.w3.org/2000/svg" viewBox="0 0 495.98 512"><title>wallet</title><path d="M487.59,299.89h-7.66v-69a32.4,32.4,0,0,0-13.74-26.48V195a24.75,24.75,0,0,0-24.72-24.72h-5.72l21.89-32.12a23.66,23.66,0,0,0-6.22-32.83L302.88,4.11a23.63,23.63,0,0,0-32.83,6.22L141.85,198.45H106.17l8.61-87.13a2.58,2.58,0,0,1,1.63-2.17,55.46,55.46,0,0,0,27.06-22A2.57,2.57,0,0,1,145.89,86l56,5.53A7.3,7.3,0,1,0,203.28,77l-56-5.53a17.08,17.08,0,0,0-16.17,7.82,40.78,40.78,0,0,1-19.9,16.16,17.05,17.05,0,0,0-11,14.39l-8.75,88.56h-9.3L95.82,60.65a9,9,0,0,1,9.88-8.11L218.78,63.71a7.3,7.3,0,1,0,1.43-14.52L107.14,38A23.66,23.66,0,0,0,81.3,59.21l-11,111.07H51.64A24.75,24.75,0,0,0,26.92,195v6.41A32.46,32.46,0,0,0,8,230.88v248.7A32.46,32.46,0,0,0,40.43,512H447.5a32.46,32.46,0,0,0,32.43-32.43v-69h7.66a16.42,16.42,0,0,0,16.4-16.4V316.3A16.42,16.42,0,0,0,487.59,299.89Zm-46.12-115h0A10.14,10.14,0,0,1,451.59,195v3.72a32.51,32.51,0,0,0-4.09-.27h-31l9.25-13.58ZM282.11,18.55a9,9,0,0,1,5.79-3.79,9.17,9.17,0,0,1,1.7-.16,9,9,0,0,1,5.07,1.57L443.2,117.39a9.05,9.05,0,0,1,2.38,12.56l-46.69,68.51h-11.2l22.89-33.59a17.06,17.06,0,0,0,.8-18.09,40.77,40.77,0,0,1-4.89-25.17,17.06,17.06,0,0,0-7.38-16.37l-77-52.47a17.06,17.06,0,0,0-17.94-.88A40.78,40.78,0,0,1,279,56.54a17.27,17.27,0,0,0-16.55,7.36l-91.7,134.56h-11.2Zm3.21,123.89a60.2,60.2,0,0,0-60,56h-37l86.1-126.34h0A2.6,2.6,0,0,1,276.6,71l.33,0a55.47,55.47,0,0,0,34.29-6.33,2.57,2.57,0,0,1,2.67.16l77,52.47a2.58,2.58,0,0,1,1.13,2.43,55.45,55.45,0,0,0,6.65,34.22,2.59,2.59,0,0,1-.14,2.71L370,198.45H345.3A60.2,60.2,0,0,0,285.32,142.44Zm45.35,56H240a45.53,45.53,0,0,1,90.7,0ZM41.51,195a10.14,10.14,0,0,1,10.13-10.13H68.89l-1.34,13.58h-26ZM22.6,230.88A17.86,17.86,0,0,1,40.44,213H447.5a17.85,17.85,0,0,1,17.83,17.83v20.24H22.6Zm442.74,248.7a17.85,17.85,0,0,1-17.83,17.83H40.44A17.86,17.86,0,0,1,22.6,479.57V459.33H61.94a7.3,7.3,0,0,0,0-14.59H22.6v-179H465.34v34.18H396a55.4,55.4,0,0,0-49.77,31.18l-.1.18c-.08.16-.14.32-.22.48a55,55,0,0,0-2.76,7.05v0A55.35,55.35,0,0,0,396,410.56h69.37v34.18H108.65a7.3,7.3,0,0,0,0,14.59H465.34Zm24.06-85.42a1.81,1.81,0,0,1-1.81,1.81H396a40.78,40.78,0,0,1-35.82-21.34q-.47-.87-.9-1.76-.86-1.78-1.55-3.65a40.78,40.78,0,0,1,0-28q.69-1.87,1.55-3.65.43-.89.9-1.76A40.78,40.78,0,0,1,396,314.48h91.62a1.81,1.81,0,0,1,1.81,1.81v77.86Z" transform="translate(-8.01 0)"/><path d="M397.68,325.63a29.6,29.6,0,1,0,29.6,29.6A29.63,29.63,0,0,0,397.68,325.63Zm0,44.61a15,15,0,1,1,15-15A15,15,0,0,1,397.68,370.23Z" transform="translate(-8.01 0)"/></svg>